<svg width="13" height="26" viewBox="0 0 13 26" fill="none" xmlns="http://www.w3.org/2000/svg">
<path fill-rule="evenodd" clip-rule="evenodd" d="M12.0893 0.198983C12.0893 1.6754 12.0893 4.32006 12.0893 4.32006C12.0893 4.32006 9.05169 4.01727 8.291 5.18136C7.87512 5.81733 8.12197 7.68058 8.08512 9.01869C9.41115 9.01869 10.7884 9.01869 12.1144 9.01869C11.7736 10.5833 11.5297 11.6431 11.2793 12.9973C10.1318 12.9973 8.06258 12.9973 8.06258 12.9973V25.801C8.06258 25.801 4.26577 25.801 2.48084 25.801C2.48198 21.854 2.48003 17.2489 2.48084 13.0474C1.61372 13.0474 0.97262 13.0474 0.105725 13.0474C0.105725 11.5716 0.105725 10.4957 0.105725 9.01869C0.946985 9.01869 1.61291 9.01869 2.45463 9.01869C2.57502 6.07302 2.62046 3.15478 4.08357 1.66885C5.7282 -0.00187099 7.29662 0.198983 12.0893 0.198983Z" fill="#4267B2"/>
</svg>
