<svg width="16" height="15" viewBox="0 0 16 15" fill="none" xmlns="http://www.w3.org/2000/svg">
<path fill-rule="evenodd" clip-rule="evenodd" d="M13.4999 3.71689V6.15651H12.4999V3.71689H9.99996V2.71911H12.4999V0.279488H13.4999V2.71911H15.9999V3.71689H13.4999ZM6.58538 1.24628C7.47264 1.73683 7.99267 2.53433 7.99267 3.57683C7.99267 4.45301 7.45159 5.14324 6.75383 5.67908C6.07314 6.20122 5.94382 6.42057 5.94382 6.86462C5.94382 7.24311 6.67327 7.88862 7.05458 8.15387C8.16935 8.92814 8.49894 9.64696 8.49894 10.8468C8.49894 12.3441 7.05458 14.016 4.3832 14.016C2.03944 14.016 -2.98023e-06 12.8954 -2.98023e-06 11.3982C-2.98023e-06 9.87823 1.86618 8.41135 4.20935 8.41135C4.46479 8.41135 4.69872 8.40063 4.94087 8.40063C4.62009 8.09427 4.3666 7.71338 4.3666 7.24966C4.3666 6.97548 4.45597 6.6995 4.5805 6.46467C4.45312 6.47361 4.32322 6.45275 4.18944 6.45275C2.26455 6.45275 0.97502 5.06157 0.97502 3.39562C0.97502 1.76485 2.75585 0.263406 4.64789 0.263406C5.70258 0.263406 8.86768 0.263406 8.86768 0.263406L7.9233 1.24628H6.58538ZM4.65568 8.79878C3.0361 8.78211 1.58488 9.76916 1.58488 10.9547C1.58488 12.1641 2.75481 13.0486 4.3745 13.0486C6.65131 13.0486 7.4453 12.2261 7.4453 11.0167C7.4453 10.8706 7.42675 10.7276 7.39345 10.5887C7.21538 9.90445 6.58492 9.5653 5.70545 8.96508C5.3857 8.86316 5.03367 8.80356 4.65568 8.79878ZM6.47552 3.5959C6.2875 2.19399 5.2074 1.06807 4.12009 1.03708C3.03314 1.00547 2.30415 2.07776 2.49217 3.48027C2.67962 4.88277 3.71281 6.04565 4.80021 6.07724C5.8866 6.10882 6.66297 4.9984 6.47552 3.5959Z" fill="black"/>
</svg>
