<svg width="26" height="26" viewBox="0 0 26 26" fill="none" xmlns="http://www.w3.org/2000/svg">
<path fill-rule="evenodd" clip-rule="evenodd" d="M22.6999 25.7998H3.49991C1.73272 25.7998 0.2999 24.3669 0.2999 22.5996V3.39975C0.2999 1.63248 1.73272 0.199604 3.49991 0.199604H22.6999C24.4673 0.199604 25.9 1.63248 25.9 3.39975V22.5996C25.9 24.3669 24.4673 25.7998 22.6999 25.7998ZM13.1 8.03938C11.1044 8.03938 9.38881 9.22076 8.60168 10.9195H8.59722C8.58899 10.9374 8.58336 10.9564 8.57536 10.9743C8.5282 11.0792 8.48657 11.1871 8.44672 11.2956C8.42763 11.3481 8.40713 11.3987 8.38974 11.4512C8.35323 11.5626 8.32324 11.6765 8.29452 11.7909C8.28102 11.8446 8.265 11.897 8.25322 11.9512C8.22723 12.0722 8.20903 12.195 8.19198 12.319C8.18512 12.3691 8.17459 12.4179 8.16922 12.4686C8.15057 12.6433 8.13993 12.8203 8.13993 12.9997C8.13993 15.7391 10.3606 17.9594 13.1 17.9594C15.8393 17.9594 18.06 15.7391 18.06 12.9997C18.06 12.8203 18.0494 12.6433 18.0307 12.4686C18.0253 12.4179 18.0148 12.3691 18.0079 12.319C17.9909 12.195 17.9727 12.0722 17.9467 11.9512C17.9349 11.897 17.9189 11.8446 17.9054 11.7909C17.8767 11.6765 17.8467 11.5626 17.8102 11.4512C17.7928 11.3987 17.7723 11.3481 17.7532 11.2956C17.7134 11.1871 17.6717 11.0792 17.6245 10.9743C17.6165 10.9564 17.6109 10.9374 17.6027 10.9195H17.5982C16.8111 9.22076 15.0955 8.03938 13.1 8.03938ZM23.02 4.3594C23.02 3.65248 22.4469 3.07968 21.7399 3.07968H19.1799C18.473 3.07968 17.9 3.65248 17.9 4.3594V6.92002C17.9 7.62694 18.473 8.19974 19.1799 8.19974H21.7399C22.4469 8.19974 23.02 7.62694 23.02 6.92002V4.3594ZM23.02 10.9195H20.6603C20.8424 11.5823 20.94 12.2797 20.94 12.9997C20.94 17.33 17.4299 20.8395 13.1 20.8395C8.77004 20.8395 5.26002 17.33 5.26002 12.9997C5.26002 12.2797 5.35762 11.5823 5.5396 10.9195H3.17992V21.6394C3.17992 22.3469 3.75306 22.9197 4.45994 22.9197H21.7399C22.4469 22.9197 23.02 22.3469 23.02 21.6394V10.9195Z" fill="black"/>
</svg>
